<?xml version="1.0" encoding="UTF-8"?>
<svg xmlns="http://www.w3.org/2000/svg" xmlns:xlink="http://www.w3.org/1999/xlink" width="100px" height="100px" viewBox="0 0 100 100" version="1.1">
<path d="M49.14 85.34l-0.08-27.2l-23.39-13.64l-23.39 13.59l0.08 27.42l23.31 13.52l23.47-13.69l0 0ZM28.03 92.17l0.05-19.03l16.28-9.52l0.02 19l-16.34 9.55l0 0ZM25.67 49.98l16.34 9.52l-16.3 9.52l-16.36-9.56l16.31-9.47l0 0ZM7.05 63.59l16.3 9.55l-0.05 19.06l-16.22-9.42l-0.03-19.19l0 0Z" fill="rgb(255,196,64)" opacity="0.2"/>
<path d="M74.38 44.5l-23.36 13.59l0.05 27.42l23.33 13.52l23.45-13.69l-0.05-27.2l-23.42-13.64l0 0ZM74.38 49.98l16.34 9.52l-16.28 9.52l-16.38-9.56l16.31-9.47l0 0ZM55.75 63.59l16.3 9.55l-0.02 19.06l-16.23-9.42l-0.05-19.19l0 0ZM76.77 92.17l0.02-19.03l16.28-9.52l0.05 19l-16.34 9.55l0 0Z" fill="rgb(255,196,64)" opacity="0.2"/>
<path d="M73.48 15.14l-23.41-13.67l-23.38 13.61l0.05 27.41l23.33 13.53l23.48-13.69l-0.08-27.19l0 0ZM50.08 6.97l16.34 9.52l-16.3 9.53l-16.34-9.58l16.3-9.47l0 0ZM31.45 20.56l16.31 9.55l-0.05 19.08l-16.23-9.42l-0.03-19.2l0 0ZM52.45 49.17l0.05-19.06l16.27-9.5l0.03 18.98l-16.34 9.58l0 0Z" fill="rgb(255,196,64)" opacity="0.2"/>
</svg>